# xmcd
#
# Track frame offsets: 
#        150
#        18979
#        33190
#        51308
#        70225
#        88551
#        103230
#        118955
#        140046
#        157934
#
# Disc length: 2344 seconds
#
# Revision: 0
# Processed by: cddbd v1.5PL3 Copyright (c) Steve Scherf et al.
# Submitted via: ExactAudioCopy v0.95a3
#
DISCID=8709260a
DTITLE=David Alan - David Alan
DYEAR=2001
DGENRE=Country
TTITLE0=Locomotive
TTITLE1=Give Me Back My Heart
TTITLE2=Memorize This Moment
TTITLE3=Marylou
TTITLE4=Mississippi Girl
TTITLE5=It Should've Been You
TTITLE6=Dangerous
TTITLE7=Are You Ready For Love?
TTITLE8=The Further She'll Fly
TTITLE9=The Woman In You
EXTD=
EXTT0=
EXTT1=
EXTT2=
EXTT3=
EXTT4=
EXTT5=
EXTT6=
EXTT7=
EXTT8=
EXTT9=
PLAYORDER=
